<mxfile host="65bd71144e">
    <diagram id="9R5UxzgEBad75rptS_9J" name="Page-1">
        <mxGraphModel dx="1661" dy="797" grid="1" gridSize="10" guides="1" tooltips="1" connect="1" arrows="1" fold="1" page="1" pageScale="1" pageWidth="850" pageHeight="1100" math="0" shadow="0">
            <root>
                <mxCell id="0"/>
                <mxCell id="1" parent="0"/>
                <mxCell id="2" value="Autonomy Watchdog" style="swimlane;" parent="1" vertex="1">
                    <mxGeometry x="240" y="20" width="540" height="620" as="geometry"/>
                </mxCell>
                <mxCell id="7" value="Driving Data Backup" style="swimlane;fontStyle=1;align=center;verticalAlign=top;childLayout=stackLayout;horizontal=1;startSize=26;horizontalStack=0;resizeParent=1;resizeParentMax=0;resizeLast=0;collapsible=1;marginBottom=0;" parent="2" vertex="1">
                    <mxGeometry x="300" y="60" width="180" height="170" as="geometry"/>
                </mxCell>
                <mxCell id="8" value="Subscribes:&#10;/scan&#10;/imu&#10;&#10;Publishes:&#10;&#10;Services:&#10;&#10;&#10;&#10;" style="text;strokeColor=none;fillColor=none;align=left;verticalAlign=top;spacingLeft=4;spacingRight=4;overflow=hidden;rotatable=0;points=[[0,0.5],[1,0.5]];portConstraint=eastwest;" parent="7" vertex="1">
                    <mxGeometry y="26" width="180" height="104" as="geometry"/>
                </mxCell>
                <mxCell id="9" value="" style="line;strokeWidth=1;fillColor=none;align=left;verticalAlign=middle;spacingTop=-1;spacingLeft=3;spacingRight=3;rotatable=0;labelPosition=right;points=[];portConstraint=eastwest;" parent="7" vertex="1">
                    <mxGeometry y="130" width="180" height="40" as="geometry"/>
                </mxCell>
                <mxCell id="11" value="Execution Checker" style="swimlane;fontStyle=1;align=center;verticalAlign=top;childLayout=stackLayout;horizontal=1;startSize=26;horizontalStack=0;resizeParent=1;resizeParentMax=0;resizeLast=0;collapsible=1;marginBottom=0;" parent="2" vertex="1">
                    <mxGeometry x="30" y="60" width="170" height="200" as="geometry"/>
                </mxCell>
                <mxCell id="12" value="Subscribes:&#10;/scan&#10;/imu&#10;&#10;Publishes:&#10;&#10;Services:&#10;/lidar_execution_service" style="text;strokeColor=none;fillColor=none;align=left;verticalAlign=top;spacingLeft=4;spacingRight=4;overflow=hidden;rotatable=0;points=[[0,0.5],[1,0.5]];portConstraint=eastwest;" parent="11" vertex="1">
                    <mxGeometry y="26" width="170" height="114" as="geometry"/>
                </mxCell>
                <mxCell id="13" value="" style="line;strokeWidth=1;fillColor=none;align=left;verticalAlign=middle;spacingTop=-1;spacingLeft=3;spacingRight=3;rotatable=0;labelPosition=right;points=[];portConstraint=eastwest;" parent="11" vertex="1">
                    <mxGeometry y="140" width="170" height="8" as="geometry"/>
                </mxCell>
                <mxCell id="14" value="+ method(type): type" style="text;strokeColor=none;fillColor=none;align=left;verticalAlign=top;spacingLeft=4;spacingRight=4;overflow=hidden;rotatable=0;points=[[0,0.5],[1,0.5]];portConstraint=eastwest;" parent="11" vertex="1">
                    <mxGeometry y="148" width="170" height="52" as="geometry"/>
                </mxCell>
                <mxCell id="15" value="BT_cmd_vel_publisher" style="swimlane;fontStyle=1;align=center;verticalAlign=top;childLayout=stackLayout;horizontal=1;startSize=26;horizontalStack=0;resizeParent=1;resizeParentMax=0;resizeLast=0;collapsible=1;marginBottom=0;" parent="2" vertex="1">
                    <mxGeometry x="180" y="438" width="160" height="164" as="geometry"/>
                </mxCell>
                <mxCell id="16" value="Publishes:&#10;&#10;Subscribes:&#10;&#10;Services:" style="text;strokeColor=none;fillColor=none;align=left;verticalAlign=top;spacingLeft=4;spacingRight=4;overflow=hidden;rotatable=0;points=[[0,0.5],[1,0.5]];portConstraint=eastwest;" parent="15" vertex="1">
                    <mxGeometry y="26" width="160" height="104" as="geometry"/>
                </mxCell>
                <mxCell id="17" value="" style="line;strokeWidth=1;fillColor=none;align=left;verticalAlign=middle;spacingTop=-1;spacingLeft=3;spacingRight=3;rotatable=0;labelPosition=right;points=[];portConstraint=eastwest;" parent="15" vertex="1">
                    <mxGeometry y="130" width="160" height="8" as="geometry"/>
                </mxCell>
                <mxCell id="18" value="+ method(type): type" style="text;strokeColor=none;fillColor=none;align=left;verticalAlign=top;spacingLeft=4;spacingRight=4;overflow=hidden;rotatable=0;points=[[0,0.5],[1,0.5]];portConstraint=eastwest;" parent="15" vertex="1">
                    <mxGeometry y="138" width="160" height="26" as="geometry"/>
                </mxCell>
                <mxCell id="19" value="Behavior Tree" style="swimlane;fontStyle=1;align=center;verticalAlign=top;childLayout=stackLayout;horizontal=1;startSize=26;horizontalStack=0;resizeParent=1;resizeParentMax=0;resizeLast=0;collapsible=1;marginBottom=0;" parent="2" vertex="1">
                    <mxGeometry x="180" y="310" width="160" height="86" as="geometry"/>
                </mxCell>
                <mxCell id="20" value="+ field: type" style="text;strokeColor=none;fillColor=none;align=left;verticalAlign=top;spacingLeft=4;spacingRight=4;overflow=hidden;rotatable=0;points=[[0,0.5],[1,0.5]];portConstraint=eastwest;" parent="19" vertex="1">
                    <mxGeometry y="26" width="160" height="26" as="geometry"/>
                </mxCell>
                <mxCell id="21" value="" style="line;strokeWidth=1;fillColor=none;align=left;verticalAlign=middle;spacingTop=-1;spacingLeft=3;spacingRight=3;rotatable=0;labelPosition=right;points=[];portConstraint=eastwest;" parent="19" vertex="1">
                    <mxGeometry y="52" width="160" height="8" as="geometry"/>
                </mxCell>
                <mxCell id="22" value="+ method(type): type" style="text;strokeColor=none;fillColor=none;align=left;verticalAlign=top;spacingLeft=4;spacingRight=4;overflow=hidden;rotatable=0;points=[[0,0.5],[1,0.5]];portConstraint=eastwest;" parent="19" vertex="1">
                    <mxGeometry y="60" width="160" height="26" as="geometry"/>
                </mxCell>
                <mxCell id="23" value="cmd_vel_decision_gate" style="swimlane;fontStyle=1;align=center;verticalAlign=top;childLayout=stackLayout;horizontal=1;startSize=26;horizontalStack=0;resizeParent=1;resizeParentMax=0;resizeLast=0;collapsible=1;marginBottom=0;" parent="1" vertex="1">
                    <mxGeometry x="350" y="760" width="160" height="154" as="geometry"/>
                </mxCell>
                <mxCell id="24" value="Publishes:&#10;&#10;Subscirbes:&#10;&#10;Services:" style="text;strokeColor=none;fillColor=none;align=left;verticalAlign=top;spacingLeft=4;spacingRight=4;overflow=hidden;rotatable=0;points=[[0,0.5],[1,0.5]];portConstraint=eastwest;" parent="23" vertex="1">
                    <mxGeometry y="26" width="160" height="94" as="geometry"/>
                </mxCell>
                <mxCell id="25" value="" style="line;strokeWidth=1;fillColor=none;align=left;verticalAlign=middle;spacingTop=-1;spacingLeft=3;spacingRight=3;rotatable=0;labelPosition=right;points=[];portConstraint=eastwest;" parent="23" vertex="1">
                    <mxGeometry y="120" width="160" height="8" as="geometry"/>
                </mxCell>
                <mxCell id="26" value="+ method(type): type" style="text;strokeColor=none;fillColor=none;align=left;verticalAlign=top;spacingLeft=4;spacingRight=4;overflow=hidden;rotatable=0;points=[[0,0.5],[1,0.5]];portConstraint=eastwest;" parent="23" vertex="1">
                    <mxGeometry y="128" width="160" height="26" as="geometry"/>
                </mxCell>
            </root>
        </mxGraphModel>
    </diagram>
</mxfile>